<svg xmlns="http://www.w3.org/2000/svg" xmlns:xlink="http://www.w3.org/1999/xlink" width="500" zoomAndPan="magnify" viewBox="0 0 375 374.999991" height="500" preserveAspectRatio="xMidYMid meet" version="1.0"><defs><clipPath id="a52a8cdd20"><path d="M 157 115.9375 L 218 115.9375 L 218 231 L 157 231 Z M 157 115.9375 " clip-rule="nonzero"/></clipPath><clipPath id="743f23f2e8"><path d="M 173.972656 185.550781 L 266.898438 185.550781 L 266.898438 259.183594 L 173.972656 259.183594 Z M 173.972656 185.550781 " clip-rule="nonzero"/></clipPath><clipPath id="b4c942f28e"><path d="M 108.058594 192.476562 L 212.863281 192.476562 L 212.863281 259.183594 L 108.058594 259.183594 Z M 108.058594 192.476562 " clip-rule="nonzero"/></clipPath></defs><g clip-path="url(#a52a8cdd20)"><path fill="#000000" d="M 181.042969 225.835938 L 185.03125 222.175781 C 185.113281 222.097656 185.199219 222.027344 185.285156 221.960938 C 185.21875 221.882812 185.15625 221.804688 185.089844 221.722656 C 180.566406 216.199219 176.96875 210.023438 174.40625 203.382812 C 174.367188 203.285156 174.324219 203.183594 174.285156 203.078125 C 173.894531 202.042969 173.523438 200.996094 173.179688 199.9375 C 172.554688 198.011719 172.011719 196.046875 171.558594 194.054688 C 171.074219 191.925781 170.695312 189.769531 170.417969 187.597656 C 170.265625 186.390625 170.144531 185.179688 170.058594 183.964844 C 169.933594 182.308594 169.875 180.640625 169.875 178.972656 C 169.875 162.121094 176.226562 145.851562 187.480469 133.472656 C 198.730469 145.855469 205.085938 162.125 205.085938 178.972656 C 205.085938 180.640625 205.023438 182.308594 204.902344 183.964844 C 207.472656 184.511719 210.015625 185.179688 212.527344 185.964844 C 214.121094 186.464844 215.695312 187.011719 217.257812 187.609375 C 217.257812 187.597656 217.257812 187.585938 217.261719 187.578125 C 217.261719 187.566406 217.261719 187.554688 217.265625 187.542969 C 217.265625 187.519531 217.269531 187.496094 217.269531 187.476562 C 217.285156 187.347656 217.296875 187.222656 217.308594 187.09375 C 217.324219 186.964844 217.335938 186.835938 217.347656 186.707031 C 217.367188 186.503906 217.386719 186.300781 217.40625 186.097656 C 217.410156 186.003906 217.417969 185.910156 217.429688 185.820312 C 217.445312 185.601562 217.464844 185.382812 217.480469 185.167969 C 217.496094 184.984375 217.507812 184.804688 217.519531 184.621094 C 217.527344 184.492188 217.539062 184.359375 217.546875 184.230469 C 217.550781 184.15625 217.554688 184.082031 217.5625 184.007812 C 217.5625 183.960938 217.566406 183.910156 217.570312 183.859375 C 217.578125 183.738281 217.585938 183.617188 217.589844 183.492188 C 217.601562 183.308594 217.613281 183.117188 217.621094 182.929688 C 217.632812 182.71875 217.640625 182.507812 217.648438 182.300781 C 217.65625 182.132812 217.664062 181.964844 217.667969 181.800781 C 217.671875 181.699219 217.675781 181.59375 217.679688 181.488281 C 217.683594 181.296875 217.691406 181.105469 217.695312 180.914062 C 217.699219 180.785156 217.699219 180.652344 217.703125 180.523438 C 217.707031 180.328125 217.710938 180.136719 217.710938 179.941406 C 217.714844 179.835938 217.714844 179.726562 217.714844 179.621094 C 217.71875 179.40625 217.71875 179.1875 217.71875 178.972656 C 217.71875 167.539062 215.363281 156.492188 210.714844 146.136719 C 208.488281 141.171875 205.734375 136.410156 202.539062 131.988281 C 199.367188 127.601562 195.734375 123.523438 191.75 119.859375 L 187.480469 115.9375 L 183.207031 119.859375 C 179.21875 123.523438 175.589844 127.601562 172.421875 131.984375 C 169.222656 136.410156 166.46875 141.171875 164.242188 146.136719 C 159.59375 156.492188 157.238281 167.539062 157.238281 178.972656 C 157.238281 179.1875 157.242188 179.40625 157.242188 179.621094 C 157.242188 179.726562 157.246094 179.835938 157.246094 179.941406 C 157.25 180.136719 157.25 180.328125 157.253906 180.523438 C 157.257812 180.652344 157.261719 180.785156 157.265625 180.914062 C 157.265625 181.042969 157.269531 181.171875 157.273438 181.300781 C 157.277344 181.359375 157.277344 181.421875 157.28125 181.480469 C 157.28125 181.585938 157.285156 181.695312 157.289062 181.800781 C 157.292969 181.96875 157.300781 182.136719 157.308594 182.304688 C 157.316406 182.511719 157.328125 182.722656 157.335938 182.929688 C 157.34375 183.117188 157.355469 183.308594 157.367188 183.492188 C 157.375 183.617188 157.378906 183.738281 157.386719 183.859375 C 157.390625 183.910156 157.394531 183.960938 157.398438 184.007812 C 157.402344 184.082031 157.40625 184.15625 157.410156 184.230469 C 157.417969 184.359375 157.425781 184.492188 157.4375 184.621094 C 157.449219 184.804688 157.460938 184.984375 157.476562 185.167969 C 157.476562 185.171875 157.476562 185.179688 157.480469 185.1875 C 157.492188 185.351562 157.503906 185.515625 157.515625 185.683594 C 157.519531 185.726562 157.523438 185.769531 157.527344 185.8125 C 157.535156 185.910156 157.546875 186.011719 157.554688 186.109375 C 157.570312 186.308594 157.589844 186.507812 157.609375 186.707031 C 157.621094 186.835938 157.632812 186.964844 157.648438 187.09375 C 157.660156 187.222656 157.671875 187.347656 157.6875 187.476562 C 157.691406 187.519531 157.695312 187.5625 157.699219 187.609375 C 157.710938 187.691406 157.71875 187.777344 157.730469 187.859375 C 157.730469 187.863281 157.730469 187.863281 157.730469 187.863281 C 157.738281 187.949219 157.746094 188.035156 157.757812 188.125 C 157.820312 188.675781 157.886719 189.230469 157.964844 189.777344 C 157.980469 189.929688 158.003906 190.082031 158.023438 190.230469 C 158.050781 190.421875 158.078125 190.613281 158.105469 190.804688 C 158.132812 190.972656 158.15625 191.136719 158.183594 191.304688 C 158.183594 191.304688 158.183594 191.308594 158.183594 191.308594 C 158.472656 193.175781 158.824219 195.027344 159.242188 196.863281 C 159.773438 199.191406 160.40625 201.492188 161.140625 203.757812 C 161.511719 204.910156 161.914062 206.054688 162.335938 207.1875 C 163.933594 211.433594 165.890625 215.542969 168.195312 219.480469 C 170.417969 223.277344 172.945312 226.878906 175.75 230.25 C 177.480469 228.960938 179.152344 227.574219 180.761719 226.097656 C 180.855469 226.011719 180.949219 225.925781 181.042969 225.835938 " fill-opacity="1" fill-rule="nonzero"/></g><g clip-path="url(#743f23f2e8)"><path fill="#000000" d="M 265.601562 248.09375 C 265.261719 246.601562 264.878906 245.121094 264.457031 243.652344 C 264.394531 243.445312 264.332031 243.234375 264.269531 243.027344 C 264.230469 242.894531 264.191406 242.765625 264.152344 242.636719 C 264.050781 242.292969 263.941406 241.949219 263.835938 241.609375 C 263.722656 241.269531 263.613281 240.929688 263.5 240.589844 C 263.425781 240.363281 263.351562 240.140625 263.269531 239.914062 C 263.132812 239.5 262.984375 239.089844 262.835938 238.679688 C 262.6875 238.269531 262.535156 237.863281 262.382812 237.457031 C 262.226562 237.046875 262.070312 236.644531 261.90625 236.238281 C 261.746094 235.832031 261.582031 235.429688 261.414062 235.027344 C 257.796875 226.394531 252.675781 218.40625 246.257812 211.472656 C 246.109375 211.3125 245.960938 211.152344 245.8125 210.996094 C 245.664062 210.835938 245.511719 210.679688 245.363281 210.523438 C 245.257812 210.414062 245.152344 210.304688 245.046875 210.195312 C 244.953125 210.097656 244.859375 210 244.765625 209.902344 C 244.652344 209.785156 244.539062 209.671875 244.425781 209.558594 C 244.28125 209.410156 244.132812 209.261719 243.984375 209.117188 C 243.832031 208.964844 243.675781 208.808594 243.519531 208.65625 C 243.355469 208.496094 243.191406 208.335938 243.027344 208.179688 C 242.878906 208.035156 242.730469 207.890625 242.578125 207.75 C 242.421875 207.601562 242.265625 207.453125 242.109375 207.308594 C 242.101562 207.304688 242.097656 207.300781 242.09375 207.296875 C 241.9375 207.148438 241.78125 207.003906 241.621094 206.859375 C 241.496094 206.742188 241.367188 206.621094 241.238281 206.507812 C 240.75 206.0625 240.253906 205.628906 239.757812 205.199219 C 239.660156 205.113281 239.566406 205.035156 239.46875 204.953125 C 239.386719 204.878906 239.300781 204.808594 239.214844 204.734375 C 239.183594 204.710938 239.152344 204.683594 239.121094 204.65625 C 238.992188 204.546875 238.859375 204.4375 238.726562 204.328125 C 238.695312 204.296875 238.660156 204.269531 238.625 204.238281 C 238.507812 204.144531 238.394531 204.046875 238.277344 203.953125 C 237.90625 203.648438 237.535156 203.347656 237.160156 203.050781 C 237.007812 202.933594 236.859375 202.816406 236.707031 202.699219 C 236.652344 202.652344 236.589844 202.605469 236.535156 202.5625 C 236.410156 202.464844 236.28125 202.367188 236.15625 202.269531 C 236.132812 202.253906 236.109375 202.234375 236.085938 202.214844 C 235.9375 202.101562 235.792969 201.992188 235.644531 201.882812 C 235.617188 201.859375 235.589844 201.839844 235.5625 201.820312 C 235.4375 201.726562 235.316406 201.636719 235.195312 201.546875 C 235.066406 201.449219 234.9375 201.355469 234.808594 201.261719 C 234.691406 201.175781 234.578125 201.089844 234.460938 201.007812 C 233.832031 200.550781 233.199219 200.105469 232.558594 199.667969 C 232.453125 199.59375 232.34375 199.523438 232.238281 199.449219 C 232.1875 199.417969 232.136719 199.382812 232.089844 199.351562 C 231.980469 199.277344 231.875 199.203125 231.765625 199.132812 C 231.699219 199.089844 231.632812 199.046875 231.570312 199.003906 C 231.457031 198.929688 231.351562 198.859375 231.238281 198.789062 C 230.605469 198.371094 229.964844 197.964844 229.320312 197.570312 C 229.207031 197.5 229.09375 197.433594 228.980469 197.363281 C 228.886719 197.304688 228.789062 197.246094 228.691406 197.1875 C 228.640625 197.160156 228.589844 197.128906 228.539062 197.097656 C 228.398438 197.011719 228.253906 196.925781 228.113281 196.84375 C 228.074219 196.820312 228.035156 196.796875 228 196.777344 C 227.832031 196.679688 227.664062 196.582031 227.496094 196.484375 C 227.492188 196.480469 227.488281 196.480469 227.484375 196.476562 C 227.355469 196.402344 227.226562 196.328125 227.101562 196.257812 C 226.699219 196.027344 226.300781 195.800781 225.894531 195.582031 C 225.773438 195.515625 225.652344 195.449219 225.535156 195.386719 C 225.40625 195.316406 225.28125 195.25 225.15625 195.183594 C 224.996094 195.097656 224.832031 195.011719 224.667969 194.921875 C 224.652344 194.914062 224.632812 194.90625 224.617188 194.898438 C 224.4375 194.800781 224.253906 194.707031 224.070312 194.613281 C 224.066406 194.613281 224.066406 194.609375 224.0625 194.609375 C 223.910156 194.53125 223.757812 194.453125 223.601562 194.375 C 223.136719 194.136719 222.671875 193.90625 222.203125 193.679688 C 222.046875 193.605469 221.890625 193.53125 221.734375 193.457031 C 221.5625 193.375 221.386719 193.292969 221.214844 193.210938 C 221.164062 193.1875 221.109375 193.164062 221.058594 193.140625 C 220.890625 193.0625 220.722656 192.988281 220.554688 192.910156 C 220.441406 192.859375 220.324219 192.804688 220.210938 192.753906 C 219.71875 192.53125 219.222656 192.316406 218.726562 192.105469 C 218.542969 192.027344 218.355469 191.949219 218.171875 191.871094 C 217.972656 191.789062 217.769531 191.707031 217.570312 191.625 C 217.367188 191.542969 217.167969 191.464844 216.964844 191.382812 C 216.902344 191.359375 216.835938 191.332031 216.773438 191.308594 C 215.023438 190.617188 213.246094 189.988281 211.445312 189.425781 C 209.167969 188.710938 206.867188 188.101562 204.539062 187.597656 C 203.355469 187.339844 202.167969 187.109375 200.976562 186.90625 C 196.535156 186.152344 192.023438 185.773438 187.480469 185.773438 C 182.933594 185.773438 178.421875 186.152344 173.984375 186.90625 C 174.246094 189.042969 174.617188 191.160156 175.089844 193.25 L 176.386719 198.941406 C 176.417969 199.066406 176.4375 199.191406 176.453125 199.316406 C 176.558594 199.300781 176.667969 199.28125 176.773438 199.265625 C 180.296875 198.703125 183.875 198.421875 187.480469 198.421875 C 191.082031 198.421875 194.660156 198.703125 198.183594 199.265625 C 198.289062 199.28125 198.398438 199.300781 198.503906 199.316406 C 199.601562 199.496094 200.691406 199.703125 201.777344 199.9375 C 203.761719 200.367188 205.726562 200.886719 207.667969 201.492188 C 209.765625 202.152344 211.816406 202.90625 213.816406 203.757812 C 214.9375 204.234375 216.042969 204.738281 217.132812 205.273438 C 233.445312 213.273438 246 227.652344 251.660156 245.019531 C 246.988281 246.027344 242.199219 246.535156 237.367188 246.535156 C 223.867188 246.535156 210.839844 242.53125 199.792969 235.109375 C 198.023438 237.074219 196.15625 238.960938 194.199219 240.757812 C 192.976562 241.878906 191.726562 242.960938 190.449219 244.003906 C 190.472656 244.019531 190.492188 244.035156 190.511719 244.046875 C 190.855469 244.296875 191.199219 244.539062 191.542969 244.78125 C 191.640625 244.847656 191.738281 244.917969 191.835938 244.984375 C 192.089844 245.160156 192.351562 245.339844 192.609375 245.515625 C 192.71875 245.585938 192.828125 245.660156 192.9375 245.734375 C 193.054688 245.8125 193.171875 245.890625 193.289062 245.964844 C 193.40625 246.042969 193.523438 246.121094 193.640625 246.199219 C 195.046875 247.117188 196.484375 247.992188 197.945312 248.820312 C 198.066406 248.890625 198.191406 248.957031 198.3125 249.027344 C 198.4375 249.097656 198.558594 249.164062 198.683594 249.234375 C 198.925781 249.367188 199.171875 249.5 199.414062 249.628906 C 199.535156 249.699219 199.660156 249.761719 199.785156 249.828125 C 200.058594 249.976562 200.335938 250.121094 200.613281 250.261719 C 200.707031 250.3125 200.800781 250.359375 200.898438 250.410156 C 201.015625 250.472656 201.132812 250.53125 201.25 250.589844 C 201.347656 250.640625 201.449219 250.691406 201.550781 250.738281 C 201.644531 250.789062 201.742188 250.839844 201.839844 250.886719 C 202.785156 251.355469 203.734375 251.800781 204.695312 252.230469 C 204.816406 252.285156 204.933594 252.335938 205.054688 252.390625 C 205.488281 252.582031 205.921875 252.769531 206.355469 252.953125 C 206.550781 253.03125 206.746094 253.113281 206.941406 253.195312 C 208.105469 253.671875 209.277344 254.121094 210.460938 254.542969 C 210.601562 254.59375 210.746094 254.644531 210.890625 254.695312 C 210.890625 254.695312 210.894531 254.695312 210.894531 254.699219 C 211.15625 254.789062 211.417969 254.878906 211.683594 254.96875 C 212.167969 255.132812 212.65625 255.292969 213.144531 255.449219 C 213.273438 255.488281 213.398438 255.527344 213.527344 255.566406 C 213.671875 255.613281 213.820312 255.65625 213.964844 255.703125 C 214.136719 255.753906 214.304688 255.804688 214.472656 255.855469 C 214.867188 255.972656 215.257812 256.085938 215.652344 256.195312 C 215.851562 256.253906 216.050781 256.308594 216.253906 256.363281 C 216.378906 256.398438 216.503906 256.429688 216.632812 256.464844 C 216.78125 256.503906 216.929688 256.542969 217.078125 256.582031 C 217.378906 256.660156 217.675781 256.738281 217.976562 256.8125 C 218.125 256.851562 218.273438 256.886719 218.425781 256.921875 C 218.863281 257.027344 219.304688 257.132812 219.746094 257.230469 C 220.058594 257.300781 220.371094 257.371094 220.683594 257.433594 C 220.832031 257.46875 220.984375 257.5 221.136719 257.53125 C 221.257812 257.554688 221.378906 257.582031 221.503906 257.605469 C 221.691406 257.644531 221.882812 257.679688 222.074219 257.71875 C 222.207031 257.746094 222.335938 257.769531 222.472656 257.792969 C 222.523438 257.804688 222.574219 257.8125 222.628906 257.824219 C 222.839844 257.863281 223.058594 257.902344 223.273438 257.941406 C 223.332031 257.953125 223.394531 257.964844 223.453125 257.972656 C 223.59375 258 223.734375 258.023438 223.871094 258.042969 C 224.175781 258.097656 224.480469 258.148438 224.789062 258.195312 C 224.980469 258.226562 225.175781 258.257812 225.375 258.285156 C 225.484375 258.304688 225.597656 258.320312 225.707031 258.335938 C 225.859375 258.359375 226.015625 258.382812 226.167969 258.402344 C 226.3125 258.421875 226.457031 258.441406 226.601562 258.460938 C 226.800781 258.488281 227.003906 258.515625 227.207031 258.539062 C 227.34375 258.558594 227.484375 258.578125 227.625 258.59375 C 228.183594 258.660156 228.742188 258.722656 229.304688 258.78125 C 229.445312 258.792969 229.585938 258.808594 229.726562 258.820312 C 229.8125 258.828125 229.898438 258.835938 229.984375 258.84375 C 230.101562 258.855469 230.21875 258.867188 230.335938 258.878906 C 230.46875 258.890625 230.601562 258.902344 230.734375 258.910156 C 230.929688 258.925781 231.128906 258.941406 231.324219 258.957031 C 231.414062 258.964844 231.507812 258.972656 231.601562 258.976562 C 231.800781 258.992188 232 259.007812 232.203125 259.019531 C 232.355469 259.027344 232.515625 259.035156 232.671875 259.046875 C 233.257812 259.082031 233.84375 259.109375 234.429688 259.128906 C 234.515625 259.132812 234.601562 259.136719 234.6875 259.140625 C 234.796875 259.144531 234.902344 259.148438 235.011719 259.148438 C 235.167969 259.15625 235.324219 259.160156 235.484375 259.160156 C 235.640625 259.164062 235.796875 259.167969 235.953125 259.171875 C 236.421875 259.179688 236.894531 259.183594 237.367188 259.183594 C 245.539062 259.183594 253.601562 257.957031 261.332031 255.53125 L 266.898438 253.785156 L 265.601562 248.09375 " fill-opacity="1" fill-rule="nonzero"/></g><g clip-path="url(#b4c942f28e)"><path fill="#000000" d="M 206.585938 204.953125 L 201.019531 203.207031 C 200.898438 203.171875 200.78125 203.128906 200.667969 203.078125 C 200.632812 203.183594 200.59375 203.285156 200.550781 203.382812 C 197.988281 210.023438 194.390625 216.199219 189.867188 221.722656 C 189.800781 221.804688 189.738281 221.882812 189.671875 221.960938 C 188.964844 222.820312 188.234375 223.660156 187.480469 224.484375 C 186.128906 225.96875 184.703125 227.398438 183.207031 228.769531 C 181.578125 230.265625 179.886719 231.675781 178.136719 232.992188 C 177.160156 233.726562 176.171875 234.433594 175.164062 235.109375 C 164.117188 242.53125 151.089844 246.535156 137.589844 246.535156 C 132.757812 246.535156 127.96875 246.027344 123.296875 245.019531 C 125.449219 238.421875 128.589844 232.257812 132.558594 226.710938 C 132.847656 226.304688 133.144531 225.902344 133.445312 225.5 C 133.640625 225.234375 133.84375 224.972656 134.046875 224.707031 C 134.25 224.445312 134.453125 224.183594 134.660156 223.921875 C 134.867188 223.664062 135.078125 223.402344 135.289062 223.148438 C 135.394531 223.019531 135.5 222.890625 135.605469 222.761719 C 135.816406 222.507812 136.03125 222.253906 136.25 222 C 136.464844 221.75 136.683594 221.5 136.902344 221.25 C 137.5625 220.503906 138.238281 219.769531 138.929688 219.050781 C 139.160156 218.8125 139.394531 218.574219 139.628906 218.339844 C 141.035156 216.925781 142.503906 215.570312 144.027344 214.285156 C 144.226562 214.121094 144.421875 213.953125 144.621094 213.789062 C 146.398438 212.324219 148.253906 210.945312 150.179688 209.664062 C 150.347656 209.554688 150.515625 209.445312 150.6875 209.332031 C 150.796875 209.261719 150.90625 209.1875 151.015625 209.117188 C 151.242188 208.972656 151.46875 208.828125 151.699219 208.6875 C 153.671875 207.445312 155.71875 206.304688 157.824219 205.273438 C 157.003906 202.777344 156.296875 200.242188 155.710938 197.671875 C 155.339844 196.042969 155.019531 194.402344 154.746094 192.753906 C 154.632812 192.804688 154.515625 192.859375 154.402344 192.910156 C 154.234375 192.988281 154.066406 193.0625 153.898438 193.140625 C 153.847656 193.164062 153.796875 193.1875 153.746094 193.210938 C 153.570312 193.292969 153.398438 193.375 153.222656 193.457031 C 153.066406 193.53125 152.910156 193.605469 152.753906 193.679688 C 152.285156 193.90625 151.820312 194.136719 151.355469 194.375 C 151.203125 194.453125 151.046875 194.53125 150.894531 194.609375 C 150.894531 194.609375 150.890625 194.609375 150.890625 194.613281 C 150.699219 194.710938 150.507812 194.808594 150.316406 194.910156 C 150.140625 195 149.96875 195.09375 149.792969 195.1875 C 149.667969 195.25 149.546875 195.316406 149.421875 195.386719 C 149.300781 195.449219 149.183594 195.515625 149.0625 195.582031 C 148.71875 195.769531 148.378906 195.960938 148.035156 196.15625 C 147.847656 196.261719 147.660156 196.371094 147.472656 196.476562 C 147.300781 196.574219 147.128906 196.675781 146.957031 196.777344 C 146.917969 196.796875 146.882812 196.820312 146.84375 196.84375 C 146.703125 196.925781 146.558594 197.011719 146.417969 197.097656 C 146.367188 197.128906 146.316406 197.160156 146.265625 197.1875 C 146.15625 197.253906 146.046875 197.320312 145.941406 197.386719 C 145.707031 197.527344 145.472656 197.671875 145.238281 197.816406 C 145.058594 197.929688 144.875 198.042969 144.691406 198.160156 C 144.6875 198.160156 144.6875 198.164062 144.679688 198.167969 C 144.503906 198.28125 144.324219 198.394531 144.144531 198.507812 C 143.980469 198.617188 143.8125 198.722656 143.648438 198.832031 C 143.601562 198.859375 143.558594 198.890625 143.515625 198.921875 C 143.378906 199.007812 143.246094 199.097656 143.113281 199.1875 C 143.066406 199.214844 143.027344 199.246094 142.980469 199.273438 C 142.847656 199.363281 142.710938 199.453125 142.578125 199.546875 C 142.546875 199.566406 142.515625 199.589844 142.480469 199.609375 C 142.316406 199.722656 142.148438 199.839844 141.984375 199.953125 C 141.804688 200.078125 141.625 200.199219 141.449219 200.324219 C 141.269531 200.449219 141.09375 200.574219 140.917969 200.703125 C 140.765625 200.8125 140.617188 200.917969 140.464844 201.027344 C 140.398438 201.078125 140.328125 201.128906 140.261719 201.179688 C 140.128906 201.273438 139.996094 201.371094 139.867188 201.46875 C 139.71875 201.578125 139.570312 201.6875 139.425781 201.796875 C 139.371094 201.835938 139.316406 201.878906 139.261719 201.921875 C 139.117188 202.03125 138.972656 202.140625 138.824219 202.25 C 138.652344 202.382812 138.480469 202.515625 138.3125 202.648438 C 138.136719 202.78125 137.96875 202.917969 137.796875 203.050781 C 137.421875 203.347656 137.050781 203.648438 136.679688 203.953125 C 136.574219 204.039062 136.46875 204.128906 136.363281 204.214844 C 136.148438 204.394531 135.933594 204.574219 135.71875 204.753906 C 135.640625 204.820312 135.5625 204.886719 135.488281 204.953125 C 135.390625 205.035156 135.296875 205.113281 135.199219 205.199219 C 134.761719 205.578125 134.324219 205.960938 133.890625 206.351562 C 133.8125 206.421875 133.734375 206.496094 133.652344 206.566406 C 133.5625 206.648438 133.46875 206.734375 133.378906 206.816406 C 133.351562 206.84375 133.324219 206.867188 133.296875 206.890625 C 133.167969 207.007812 133.042969 207.125 132.914062 207.246094 C 132.730469 207.417969 132.546875 207.589844 132.363281 207.761719 C 132.21875 207.902344 132.074219 208.039062 131.929688 208.179688 C 131.625 208.46875 131.324219 208.761719 131.03125 209.058594 C 130.933594 209.15625 130.835938 209.25 130.738281 209.347656 C 130.632812 209.457031 130.523438 209.566406 130.414062 209.675781 C 130.320312 209.773438 130.226562 209.871094 130.128906 209.96875 C 130.074219 210.019531 130.023438 210.074219 129.972656 210.128906 C 129.847656 210.257812 129.726562 210.382812 129.605469 210.511719 C 129.597656 210.515625 129.597656 210.519531 129.59375 210.523438 C 129.445312 210.679688 129.292969 210.835938 129.144531 210.996094 C 128.996094 211.152344 128.847656 211.3125 128.699219 211.472656 C 119.148438 221.789062 112.460938 234.449219 109.355469 248.09375 L 108.058594 253.785156 L 113.625 255.53125 C 121.355469 257.957031 129.417969 259.183594 137.589844 259.183594 C 138.0625 259.183594 138.535156 259.179688 139.003906 259.171875 C 139.160156 259.167969 139.316406 259.164062 139.472656 259.160156 C 139.628906 259.160156 139.789062 259.15625 139.945312 259.148438 C 140.054688 259.148438 140.160156 259.144531 140.269531 259.140625 C 140.355469 259.136719 140.441406 259.132812 140.523438 259.128906 C 141.117188 259.109375 141.707031 259.082031 142.296875 259.046875 C 142.449219 259.035156 142.601562 259.027344 142.753906 259.019531 C 142.953125 259.007812 143.148438 258.992188 143.347656 258.976562 C 143.441406 258.972656 143.539062 258.964844 143.632812 258.957031 C 143.832031 258.941406 144.03125 258.925781 144.230469 258.910156 C 144.359375 258.898438 144.492188 258.890625 144.621094 258.878906 C 144.742188 258.867188 144.859375 258.855469 144.980469 258.84375 C 145.066406 258.835938 145.148438 258.828125 145.230469 258.820312 C 145.375 258.808594 145.511719 258.792969 145.652344 258.78125 C 145.773438 258.769531 145.894531 258.753906 146.015625 258.742188 C 146.167969 258.726562 146.324219 258.710938 146.476562 258.691406 C 147.105469 258.621094 147.730469 258.546875 148.355469 258.460938 C 148.5 258.441406 148.644531 258.421875 148.789062 258.402344 C 148.945312 258.382812 149.097656 258.359375 149.25 258.335938 C 149.371094 258.316406 149.492188 258.300781 149.613281 258.28125 C 149.796875 258.253906 149.984375 258.226562 150.167969 258.195312 C 150.476562 258.148438 150.78125 258.097656 151.085938 258.042969 C 151.277344 258.015625 151.464844 257.980469 151.65625 257.945312 C 151.882812 257.90625 152.105469 257.867188 152.332031 257.824219 C 152.375 257.816406 152.414062 257.808594 152.457031 257.800781 C 152.609375 257.773438 152.761719 257.742188 152.910156 257.714844 C 153.082031 257.679688 153.257812 257.644531 153.429688 257.613281 C 153.558594 257.585938 153.691406 257.558594 153.820312 257.53125 C 153.972656 257.5 154.125 257.46875 154.273438 257.433594 C 154.421875 257.402344 154.570312 257.375 154.714844 257.339844 C 154.882812 257.304688 155.046875 257.269531 155.210938 257.230469 C 155.652344 257.132812 156.09375 257.027344 156.53125 256.921875 C 156.683594 256.886719 156.832031 256.851562 156.980469 256.8125 C 157.125 256.777344 157.265625 256.742188 157.40625 256.703125 C 157.425781 256.699219 157.441406 256.695312 157.460938 256.691406 C 157.601562 256.65625 157.738281 256.621094 157.875 256.582031 C 158.027344 256.542969 158.175781 256.503906 158.324219 256.464844 C 158.472656 256.425781 158.625 256.386719 158.769531 256.34375 C 158.941406 256.296875 159.109375 256.253906 159.277344 256.203125 C 159.679688 256.089844 160.082031 255.976562 160.484375 255.855469 C 160.519531 255.84375 160.558594 255.832031 160.59375 255.824219 C 160.726562 255.78125 160.859375 255.742188 160.992188 255.703125 C 161.28125 255.613281 161.574219 255.523438 161.863281 255.429688 C 161.871094 255.429688 161.878906 255.425781 161.882812 255.425781 C 162.027344 255.378906 162.167969 255.332031 162.3125 255.285156 C 162.460938 255.238281 162.613281 255.1875 162.761719 255.136719 C 162.90625 255.09375 163.046875 255.042969 163.1875 254.996094 C 163.480469 254.898438 163.773438 254.796875 164.0625 254.699219 C 164.0625 254.695312 164.066406 254.695312 164.066406 254.695312 C 164.210938 254.644531 164.355469 254.59375 164.496094 254.542969 C 165.679688 254.121094 166.855469 253.671875 168.015625 253.195312 C 168.210938 253.113281 168.40625 253.03125 168.601562 252.953125 C 169.035156 252.769531 169.46875 252.582031 169.902344 252.390625 C 170.023438 252.335938 170.140625 252.285156 170.261719 252.230469 C 171.222656 251.800781 172.171875 251.355469 173.117188 250.886719 C 173.214844 250.839844 173.3125 250.789062 173.40625 250.738281 C 173.507812 250.691406 173.605469 250.640625 173.707031 250.589844 C 173.824219 250.53125 173.941406 250.472656 174.058594 250.410156 C 174.15625 250.359375 174.25 250.3125 174.347656 250.261719 C 174.625 250.121094 174.898438 249.976562 175.175781 249.828125 C 175.296875 249.761719 175.421875 249.699219 175.542969 249.628906 C 175.785156 249.5 176.03125 249.367188 176.273438 249.234375 C 176.398438 249.164062 176.519531 249.097656 176.644531 249.027344 C 176.769531 248.957031 176.890625 248.890625 177.011719 248.820312 C 178.472656 247.992188 179.90625 247.117188 181.316406 246.199219 C 181.4375 246.121094 181.554688 246.042969 181.671875 245.964844 C 181.789062 245.890625 181.90625 245.8125 182.023438 245.734375 C 182.128906 245.660156 182.238281 245.585938 182.347656 245.515625 C 182.605469 245.339844 182.867188 245.164062 183.125 244.984375 C 183.21875 244.917969 183.316406 244.847656 183.414062 244.78125 C 183.757812 244.539062 184.101562 244.296875 184.445312 244.046875 C 184.464844 244.035156 184.488281 244.019531 184.507812 244.003906 C 184.601562 243.9375 184.695312 243.867188 184.785156 243.800781 C 185.015625 243.632812 185.246094 243.460938 185.476562 243.292969 C 185.585938 243.207031 185.695312 243.125 185.804688 243.042969 C 186.117188 242.808594 186.425781 242.570312 186.734375 242.328125 C 186.976562 242.140625 187.21875 241.953125 187.457031 241.761719 C 187.464844 241.753906 187.472656 241.75 187.480469 241.746094 C 188.9375 240.578125 190.363281 239.359375 191.75 238.085938 C 193.519531 236.460938 195.210938 234.761719 196.820312 232.992188 C 197.640625 232.097656 198.433594 231.183594 199.207031 230.25 C 202.011719 226.878906 204.539062 223.277344 206.761719 219.480469 C 209.066406 215.542969 211.023438 211.433594 212.617188 207.1875 C 210.660156 206.34375 208.644531 205.597656 206.585938 204.953125 " fill-opacity="1" fill-rule="nonzero"/></g></svg>